<?xml version="1.0" standalone="no"?>
<!DOCTYPE svg PUBLIC "-//W3C//DTD SVG 20010904//EN"
 "http://www.w3.org/TR/2001/REC-SVG-20010904/DTD/svg10.dtd">
<svg version="1.0" xmlns="http://www.w3.org/2000/svg"
 width="1048.000000pt" height="1280.000000pt" viewBox="0 0 1048.000000 1280.000000"
 preserveAspectRatio="xMidYMid meet">
<g transform="translate(0.000000,1280.000000) scale(0.100000,-0.100000)"
fill="#000000" stroke="none">
<path d="M3576 12785 c-448 -73 -791 -357 -919 -760 l-22 -70 -3 -2152 c-1
-1184 -5 -2153 -9 -2153 -3 0 -38 24 -77 54 -347 265 -759 408 -1221 423 -375
12 -614 -44 -860 -202 -205 -131 -375 -363 -437 -595 -29 -110 -31 -328 -5
-434 42 -167 123 -316 240 -442 136 -146 290 -243 502 -317 141 -50 169 -63
256 -118 88 -57 209 -179 257 -261 18 -31 45 -89 60 -130 25 -72 26 -79 33
-428 7 -361 14 -462 50 -675 169 -1011 785 -1937 1714 -2574 234 -161 363
-302 456 -496 94 -197 92 -178 98 -770 5 -414 9 -525 20 -545 45 -82 100 -123
180 -136 85 -14 180 37 224 119 22 41 22 48 25 512 2 295 -1 505 -8 564 -6 52
-9 96 -6 98 2 3 10 -37 17 -89 8 -51 15 -84 17 -74 4 21 -162 22 2207 -4 462
-5 1181 -12 1597 -16 l757 -7 4 -21 c2 -12 6 17 8 64 2 47 6 -156 9 -450 5
-497 6 -537 24 -570 26 -49 55 -79 98 -101 89 -46 183 -33 254 35 73 71 74 77
74 642 0 535 6 625 57 839 86 365 233 658 503 1005 208 268 296 405 420 662
123 256 199 480 250 738 58 296 55 183 55 2425 l0 2070 -23 85 c-115 432 -519
746 -1014 790 -252 22 -538 -42 -737 -165 -40 -25 -74 -45 -76 -45 -1 0 -8 28
-15 62 -18 94 -63 208 -117 300 -57 97 -215 263 -312 328 -360 241 -848 277
-1237 91 -91 -43 -166 -90 -245 -150 l-26 -20 -49 77 c-157 248 -425 425 -747
493 -152 33 -372 31 -522 -3 -135 -32 -245 -73 -349 -133 -44 -25 -81 -45 -82
-45 -2 0 -5 408 -6 908 l-4 907 -22 80 c-45 159 -130 310 -242 429 -158 168
-379 288 -630 342 -106 22 -334 27 -444 9z m541 -11467 c-3 -8 -6 -5 -6 6 -1
11 2 17 5 13 3 -3 4 -12 1 -19z m4630 -45 c-3 -10 -5 -2 -5 17 0 19 2 27 5 18
2 -10 2 -26 0 -35z"/>
</g>
</svg>
